<svg xmlns="http://www.w3.org/2000/svg" width="461" height="338" viewBox="0 0 461 338" role="img" aria-label="Terminal: Joaquim Mendes, full stack engineer. Java, Spring Boot, React, TypeScript. State? It ain't.">
<title>rescker@github: ~</title>
<clipPath id="win"><rect x="0" y="0" width="461" height="338" rx="10.0"/></clipPath>
<g clip-path="url(#win)">
<rect x="0" y="0" width="461" height="36.0" fill="#161B22"/>
<rect x="0" y="36.0" width="461" height="302.0" fill="#0D1117"/>
</g>
<rect x="0.5" y="0.5" width="460" height="337" rx="10.0" fill="none" stroke="#30363D"/>
<circle cx="20.0" cy="18.0" r="5.5" fill="#FF5F56"/>
<circle cx="38.0" cy="18.0" r="5.5" fill="#FFBD2E"/>
<circle cx="56.0" cy="18.0" r="5.5" fill="#27C93F"/>
<text x="230.5" y="22.0" fill="#8B949E" font-family="ui-monospace, SFMono-Regular, 'SF Mono', Menlo, Consolas, 'Liberation Mono', monospace" font-size="12.5" text-anchor="middle">rescker@github — zsh</text>
<g fill="#39D353">
<rect x="30.40" y="75.80" width="5.20" height="6.90"/>
<rect x="35.60" y="75.80" width="5.20" height="6.90"/>
<rect x="40.80" y="75.80" width="5.20" height="6.90"/>
<rect x="35.60" y="82.70" width="5.20" height="6.90"/>
<rect x="35.60" y="89.60" width="5.20" height="6.90"/>
<rect x="35.60" y="96.50" width="5.20" height="6.90"/>
<rect x="35.60" y="103.40" width="5.20" height="6.90"/>
<rect x="20.00" y="110.30" width="5.20" height="6.90"/>
<rect x="35.60" y="110.30" width="5.20" height="6.90"/>
<rect x="25.20" y="117.20" width="5.20" height="6.90"/>
<rect x="30.40" y="117.20" width="5.20" height="6.90"/>
<rect x="56.40" y="75.80" width="5.20" height="6.90"/>
<rect x="61.60" y="75.80" width="5.20" height="6.90"/>
<rect x="66.80" y="75.80" width="5.20" height="6.90"/>
<rect x="51.20" y="82.70" width="5.20" height="6.90"/>
<rect x="72.00" y="82.70" width="5.20" height="6.90"/>
<rect x="51.20" y="89.60" width="5.20" height="6.90"/>
<rect x="72.00" y="89.60" width="5.20" height="6.90"/>
<rect x="51.20" y="96.50" width="5.20" height="6.90"/>
<rect x="72.00" y="96.50" width="5.20" height="6.90"/>
<rect x="51.20" y="103.40" width="5.20" height="6.90"/>
<rect x="72.00" y="103.40" width="5.20" height="6.90"/>
<rect x="51.20" y="110.30" width="5.20" height="6.90"/>
<rect x="72.00" y="110.30" width="5.20" height="6.90"/>
<rect x="56.40" y="117.20" width="5.20" height="6.90"/>
<rect x="61.60" y="117.20" width="5.20" height="6.90"/>
<rect x="66.80" y="117.20" width="5.20" height="6.90"/>
<rect x="87.60" y="75.80" width="5.20" height="6.90"/>
<rect x="92.80" y="75.80" width="5.20" height="6.90"/>
<rect x="98.00" y="75.80" width="5.20" height="6.90"/>
<rect x="82.40" y="82.70" width="5.20" height="6.90"/>
<rect x="103.20" y="82.70" width="5.20" height="6.90"/>
<rect x="82.40" y="89.60" width="5.20" height="6.90"/>
<rect x="103.20" y="89.60" width="5.20" height="6.90"/>
<rect x="82.40" y="96.50" width="5.20" height="6.90"/>
<rect x="87.60" y="96.50" width="5.20" height="6.90"/>
<rect x="92.80" y="96.50" width="5.20" height="6.90"/>
<rect x="98.00" y="96.50" width="5.20" height="6.90"/>
<rect x="103.20" y="96.50" width="5.20" height="6.90"/>
<rect x="82.40" y="103.40" width="5.20" height="6.90"/>
<rect x="103.20" y="103.40" width="5.20" height="6.90"/>
<rect x="82.40" y="110.30" width="5.20" height="6.90"/>
<rect x="103.20" y="110.30" width="5.20" height="6.90"/>
<rect x="82.40" y="117.20" width="5.20" height="6.90"/>
<rect x="103.20" y="117.20" width="5.20" height="6.90"/>
<rect x="118.80" y="75.80" width="5.20" height="6.90"/>
<rect x="124.00" y="75.80" width="5.20" height="6.90"/>
<rect x="129.20" y="75.80" width="5.20" height="6.90"/>
<rect x="113.60" y="82.70" width="5.20" height="6.90"/>
<rect x="134.40" y="82.70" width="5.20" height="6.90"/>
<rect x="113.60" y="89.60" width="5.20" height="6.90"/>
<rect x="134.40" y="89.60" width="5.20" height="6.90"/>
<rect x="113.60" y="96.50" width="5.20" height="6.90"/>
<rect x="134.40" y="96.50" width="5.20" height="6.90"/>
<rect x="113.60" y="103.40" width="5.20" height="6.90"/>
<rect x="124.00" y="103.40" width="5.20" height="6.90"/>
<rect x="134.40" y="103.40" width="5.20" height="6.90"/>
<rect x="113.60" y="110.30" width="5.20" height="6.90"/>
<rect x="129.20" y="110.30" width="5.20" height="6.90"/>
<rect x="118.80" y="117.20" width="5.20" height="6.90"/>
<rect x="124.00" y="117.20" width="5.20" height="6.90"/>
<rect x="134.40" y="117.20" width="5.20" height="6.90"/>
<rect x="144.80" y="75.80" width="5.20" height="6.90"/>
<rect x="165.60" y="75.80" width="5.20" height="6.90"/>
<rect x="144.80" y="82.70" width="5.20" height="6.90"/>
<rect x="165.60" y="82.70" width="5.20" height="6.90"/>
<rect x="144.80" y="89.60" width="5.20" height="6.90"/>
<rect x="165.60" y="89.60" width="5.20" height="6.90"/>
<rect x="144.80" y="96.50" width="5.20" height="6.90"/>
<rect x="165.60" y="96.50" width="5.20" height="6.90"/>
<rect x="144.80" y="103.40" width="5.20" height="6.90"/>
<rect x="165.60" y="103.40" width="5.20" height="6.90"/>
<rect x="144.80" y="110.30" width="5.20" height="6.90"/>
<rect x="165.60" y="110.30" width="5.20" height="6.90"/>
<rect x="150.00" y="117.20" width="5.20" height="6.90"/>
<rect x="155.20" y="117.20" width="5.20" height="6.90"/>
<rect x="160.40" y="117.20" width="5.20" height="6.90"/>
<rect x="176.00" y="75.80" width="5.20" height="6.90"/>
<rect x="181.20" y="75.80" width="5.20" height="6.90"/>
<rect x="186.40" y="75.80" width="5.20" height="6.90"/>
<rect x="191.60" y="75.80" width="5.20" height="6.90"/>
<rect x="196.80" y="75.80" width="5.20" height="6.90"/>
<rect x="186.40" y="82.70" width="5.20" height="6.90"/>
<rect x="186.40" y="89.60" width="5.20" height="6.90"/>
<rect x="186.40" y="96.50" width="5.20" height="6.90"/>
<rect x="186.40" y="103.40" width="5.20" height="6.90"/>
<rect x="186.40" y="110.30" width="5.20" height="6.90"/>
<rect x="176.00" y="117.20" width="5.20" height="6.90"/>
<rect x="181.20" y="117.20" width="5.20" height="6.90"/>
<rect x="186.40" y="117.20" width="5.20" height="6.90"/>
<rect x="191.60" y="117.20" width="5.20" height="6.90"/>
<rect x="196.80" y="117.20" width="5.20" height="6.90"/>
<rect x="207.20" y="75.80" width="5.20" height="6.90"/>
<rect x="228.00" y="75.80" width="5.20" height="6.90"/>
<rect x="207.20" y="82.70" width="5.20" height="6.90"/>
<rect x="212.40" y="82.70" width="5.20" height="6.90"/>
<rect x="222.80" y="82.70" width="5.20" height="6.90"/>
<rect x="228.00" y="82.70" width="5.20" height="6.90"/>
<rect x="207.20" y="89.60" width="5.20" height="6.90"/>
<rect x="217.60" y="89.60" width="5.20" height="6.90"/>
<rect x="228.00" y="89.60" width="5.20" height="6.90"/>
<rect x="207.20" y="96.50" width="5.20" height="6.90"/>
<rect x="228.00" y="96.50" width="5.20" height="6.90"/>
<rect x="207.20" y="103.40" width="5.20" height="6.90"/>
<rect x="228.00" y="103.40" width="5.20" height="6.90"/>
<rect x="207.20" y="110.30" width="5.20" height="6.90"/>
<rect x="228.00" y="110.30" width="5.20" height="6.90"/>
<rect x="207.20" y="117.20" width="5.20" height="6.90"/>
<rect x="228.00" y="117.20" width="5.20" height="6.90"/>
<rect x="20.00" y="137.90" width="5.20" height="6.90"/>
<rect x="40.80" y="137.90" width="5.20" height="6.90"/>
<rect x="20.00" y="144.80" width="5.20" height="6.90"/>
<rect x="25.20" y="144.80" width="5.20" height="6.90"/>
<rect x="35.60" y="144.80" width="5.20" height="6.90"/>
<rect x="40.80" y="144.80" width="5.20" height="6.90"/>
<rect x="20.00" y="151.70" width="5.20" height="6.90"/>
<rect x="30.40" y="151.70" width="5.20" height="6.90"/>
<rect x="40.80" y="151.70" width="5.20" height="6.90"/>
<rect x="20.00" y="158.60" width="5.20" height="6.90"/>
<rect x="40.80" y="158.60" width="5.20" height="6.90"/>
<rect x="20.00" y="165.50" width="5.20" height="6.90"/>
<rect x="40.80" y="165.50" width="5.20" height="6.90"/>
<rect x="20.00" y="172.40" width="5.20" height="6.90"/>
<rect x="40.80" y="172.40" width="5.20" height="6.90"/>
<rect x="20.00" y="179.30" width="5.20" height="6.90"/>
<rect x="40.80" y="179.30" width="5.20" height="6.90"/>
<rect x="51.20" y="137.90" width="5.20" height="6.90"/>
<rect x="56.40" y="137.90" width="5.20" height="6.90"/>
<rect x="61.60" y="137.90" width="5.20" height="6.90"/>
<rect x="66.80" y="137.90" width="5.20" height="6.90"/>
<rect x="72.00" y="137.90" width="5.20" height="6.90"/>
<rect x="51.20" y="144.80" width="5.20" height="6.90"/>
<rect x="51.20" y="151.70" width="5.20" height="6.90"/>
<rect x="51.20" y="158.60" width="5.20" height="6.90"/>
<rect x="56.40" y="158.60" width="5.20" height="6.90"/>
<rect x="61.60" y="158.60" width="5.20" height="6.90"/>
<rect x="66.80" y="158.60" width="5.20" height="6.90"/>
<rect x="51.20" y="165.50" width="5.20" height="6.90"/>
<rect x="51.20" y="172.40" width="5.20" height="6.90"/>
<rect x="51.20" y="179.30" width="5.20" height="6.90"/>
<rect x="56.40" y="179.30" width="5.20" height="6.90"/>
<rect x="61.60" y="179.30" width="5.20" height="6.90"/>
<rect x="66.80" y="179.30" width="5.20" height="6.90"/>
<rect x="72.00" y="179.30" width="5.20" height="6.90"/>
<rect x="82.40" y="137.90" width="5.20" height="6.90"/>
<rect x="103.20" y="137.90" width="5.20" height="6.90"/>
<rect x="82.40" y="144.80" width="5.20" height="6.90"/>
<rect x="87.60" y="144.80" width="5.20" height="6.90"/>
<rect x="103.20" y="144.80" width="5.20" height="6.90"/>
<rect x="82.40" y="151.70" width="5.20" height="6.90"/>
<rect x="92.80" y="151.70" width="5.20" height="6.90"/>
<rect x="103.20" y="151.70" width="5.20" height="6.90"/>
<rect x="82.40" y="158.60" width="5.20" height="6.90"/>
<rect x="98.00" y="158.60" width="5.20" height="6.90"/>
<rect x="103.20" y="158.60" width="5.20" height="6.90"/>
<rect x="82.40" y="165.50" width="5.20" height="6.90"/>
<rect x="103.20" y="165.50" width="5.20" height="6.90"/>
<rect x="82.40" y="172.40" width="5.20" height="6.90"/>
<rect x="103.20" y="172.40" width="5.20" height="6.90"/>
<rect x="82.40" y="179.30" width="5.20" height="6.90"/>
<rect x="103.20" y="179.30" width="5.20" height="6.90"/>
<rect x="113.60" y="137.90" width="5.20" height="6.90"/>
<rect x="118.80" y="137.90" width="5.20" height="6.90"/>
<rect x="124.00" y="137.90" width="5.20" height="6.90"/>
<rect x="129.20" y="137.90" width="5.20" height="6.90"/>
<rect x="113.60" y="144.80" width="5.20" height="6.90"/>
<rect x="134.40" y="144.80" width="5.20" height="6.90"/>
<rect x="113.60" y="151.70" width="5.20" height="6.90"/>
<rect x="134.40" y="151.70" width="5.20" height="6.90"/>
<rect x="113.60" y="158.60" width="5.20" height="6.90"/>
<rect x="134.40" y="158.60" width="5.20" height="6.90"/>
<rect x="113.60" y="165.50" width="5.20" height="6.90"/>
<rect x="134.40" y="165.50" width="5.20" height="6.90"/>
<rect x="113.60" y="172.40" width="5.20" height="6.90"/>
<rect x="134.40" y="172.40" width="5.20" height="6.90"/>
<rect x="113.60" y="179.30" width="5.20" height="6.90"/>
<rect x="118.80" y="179.30" width="5.20" height="6.90"/>
<rect x="124.00" y="179.30" width="5.20" height="6.90"/>
<rect x="129.20" y="179.30" width="5.20" height="6.90"/>
<rect x="144.80" y="137.90" width="5.20" height="6.90"/>
<rect x="150.00" y="137.90" width="5.20" height="6.90"/>
<rect x="155.20" y="137.90" width="5.20" height="6.90"/>
<rect x="160.40" y="137.90" width="5.20" height="6.90"/>
<rect x="165.60" y="137.90" width="5.20" height="6.90"/>
<rect x="144.80" y="144.80" width="5.20" height="6.90"/>
<rect x="144.80" y="151.70" width="5.20" height="6.90"/>
<rect x="144.80" y="158.60" width="5.20" height="6.90"/>
<rect x="150.00" y="158.60" width="5.20" height="6.90"/>
<rect x="155.20" y="158.60" width="5.20" height="6.90"/>
<rect x="160.40" y="158.60" width="5.20" height="6.90"/>
<rect x="144.80" y="165.50" width="5.20" height="6.90"/>
<rect x="144.80" y="172.40" width="5.20" height="6.90"/>
<rect x="144.80" y="179.30" width="5.20" height="6.90"/>
<rect x="150.00" y="179.30" width="5.20" height="6.90"/>
<rect x="155.20" y="179.30" width="5.20" height="6.90"/>
<rect x="160.40" y="179.30" width="5.20" height="6.90"/>
<rect x="165.60" y="179.30" width="5.20" height="6.90"/>
<rect x="181.20" y="137.90" width="5.20" height="6.90"/>
<rect x="186.40" y="137.90" width="5.20" height="6.90"/>
<rect x="191.60" y="137.90" width="5.20" height="6.90"/>
<rect x="196.80" y="137.90" width="5.20" height="6.90"/>
<rect x="176.00" y="144.80" width="5.20" height="6.90"/>
<rect x="176.00" y="151.70" width="5.20" height="6.90"/>
<rect x="181.20" y="158.60" width="5.20" height="6.90"/>
<rect x="186.40" y="158.60" width="5.20" height="6.90"/>
<rect x="191.60" y="158.60" width="5.20" height="6.90"/>
<rect x="196.80" y="165.50" width="5.20" height="6.90"/>
<rect x="196.80" y="172.40" width="5.20" height="6.90"/>
<rect x="176.00" y="179.30" width="5.20" height="6.90"/>
<rect x="181.20" y="179.30" width="5.20" height="6.90"/>
<rect x="186.40" y="179.30" width="5.20" height="6.90"/>
<rect x="191.60" y="179.30" width="5.20" height="6.90"/>
</g>
<g font-family="ui-monospace, SFMono-Regular, 'SF Mono', Menlo, Consolas, 'Liberation Mono', monospace" font-size="15.5">
<text x="263.2" y="75.3" fill="#39D353" font-weight="600" textLength="130.2" lengthAdjust="spacingAndGlyphs">rescker@github</text>
<line x1="263.2" y1="91.8" x2="390.4" y2="91.8" stroke="#30363D" stroke-width="1.5"/>
<text x="263.2" y="121.3" fill="#C9D1D9" font-weight="600" textLength="130.2" lengthAdjust="spacingAndGlyphs">Joaquim Mendes</text>
<text x="263.2" y="144.3" fill="#8B949E" textLength="176.7" lengthAdjust="spacingAndGlyphs">full stack engineer</text>
<text x="263.2" y="167.3" fill="#C9D1D9" textLength="167.4" lengthAdjust="spacingAndGlyphs">Java · Spring Boot</text>
<text x="263.2" y="190.3" fill="#C9D1D9" textLength="167.4" lengthAdjust="spacingAndGlyphs">React / TypeScript</text>
</g>
<line x1="20.0" y1="216.0" x2="441.0" y2="216.0" stroke="#21262D" stroke-width="1"/>
<g font-family="ui-monospace, SFMono-Regular, 'SF Mono', Menlo, Consolas, 'Liberation Mono', monospace" font-size="15.5">
<text x="20.0" y="253.3" fill="#39D353" font-weight="600" textLength="158.1" lengthAdjust="spacingAndGlyphs">rescker@github:~$</text>
<clipPath id="cmd" clipPathUnits="userSpaceOnUse">
<rect x="187.4" y="234.9" width="0" height="23.0">
<animate attributeName="width" calcMode="discrete" dur="0.72s" begin="0.55s" fill="freeze" values="0.0;9.3;18.6;27.9;37.2;46.5;55.8;65.1;74.4;83.7;93.0;102.3;111.6;120.9"/>
</rect></clipPath>
<text x="187.4" y="253.3" fill="#C9D1D9" clip-path="url(#cmd)" textLength="120.9" lengthAdjust="spacingAndGlyphs">cat /etc/motd</text>
<rect x="187.4" y="241.2" width="5.8" height="14.7" fill="#39D353">
<animate attributeName="opacity" values="1;1;0;0" keyTimes="0;0.5;0.5;1" dur="1.06s" repeatCount="indefinite"/>
<animate attributeName="opacity" values="1;0" begin="0.55s" dur="0.01s" fill="freeze"/>
</rect>
<text x="20.0" y="276.3" fill="#C9D1D9" opacity="0" textLength="334.8" lengthAdjust="spacingAndGlyphs">State? It ain't. Hit the road, dude.
<animate attributeName="opacity" values="0;1" begin="1.40s" dur="0.28s" fill="freeze"/>
</text>
<text x="20.0" y="299.3" fill="#C9D1D9" opacity="0" textLength="288.3" lengthAdjust="spacingAndGlyphs">This ain't no state property. 🚜
<animate attributeName="opacity" values="0;1" begin="1.54s" dur="0.28s" fill="freeze"/>
</text>
<g opacity="0"><animate attributeName="opacity" values="0;1" begin="1.85s" dur="0.2s" fill="freeze"/>
<text x="20.0" y="333.8" fill="#39D353" font-weight="600" textLength="158.1" lengthAdjust="spacingAndGlyphs">rescker@github:~$</text>
<rect x="187.4" y="321.7" width="5.8" height="14.7" fill="#39D353">
<animate attributeName="opacity" values="1;1;0;0" keyTimes="0;0.5;0.5;1" dur="1.06s" repeatCount="indefinite"/>
</rect></g>
</g>
</svg>
